<?xml version="1.0" encoding="utf-8"?>
<!-- Svg Vector Icons : http://www.onlinewebfonts.com/icon -->
<!DOCTYPE svg PUBLIC "-//W3C//DTD SVG 1.1//EN" "http://www.w3.org/Graphics/SVG/1.1/DTD/svg11.dtd">
<svg version="1.1" xmlns="http://www.w3.org/2000/svg" xmlns:xlink="http://www.w3.org/1999/xlink" x="0px" y="0px" viewBox="0 0 1000 1000" enable-background="new 0 0 1000 1000" xml:space="preserve">
<metadata> Svg Vector Icons : http://www.onlinewebfonts.com/icon </metadata>
<g><g transform="translate(0.000000,512.000000) scale(0.100000,-0.100000)"><path d="M1871.3,4999.9c-283.3-40.2-605-166.5-865.3-335c-143.6-93.8-455.6-405.8-549.4-549.4c-176.1-269.9-292.9-578.2-335-882.6c-28.7-206.8-28.7-6019,0-6225.8c63.2-461.4,281.4-886.4,616.4-1208c327.4-312.1,721.8-503.5,1165.9-560.9c109.1-15.3,1097-19.2,3202.9-15.3l3044,5.7l191.4,51.7c371.4,103.4,716,304.4,970.6,566.7c248.9,258.4,428.8,576.3,528.4,932.3l51.7,191.4l5.7,3044c3.8,2105.9,0,3093.7-15.3,3202.9c-57.4,444.2-248.9,838.5-560.9,1165.9c-321.6,335-746.6,553.3-1208,616.4C7932.5,5024.8,2045.6,5024.8,1871.3,4999.9z M5872.5,991c30.6-28.7,47.9-68.9,47.9-105.3c0-36.4-17.2-76.6-47.9-105.3l-45.9-47.9h-825.1h-825.1l-45.9,47.9c-30.6,28.7-47.9,68.9-47.9,105.3c0,36.4,17.2,76.6,47.9,105.3l45.9,47.9h825.1h825.1L5872.5,991z M5872.5,72.1c30.6-28.7,47.9-68.9,47.9-105.3c0-36.4-17.2-76.6-47.9-105.3l-45.9-47.9h-825.1h-825.1l-45.9,47.9c-30.6,28.7-47.9,68.9-47.9,105.3c0,36.4,17.2,76.6,47.9,105.3l45.9,47.9h825.1h825.1L5872.5,72.1z M5872.5-846.8c30.6-28.7,47.9-68.9,47.9-105.3c0-36.4-17.2-76.6-47.9-105.3l-45.9-47.9h-825.1h-825.1l-45.9,47.9c-30.6,28.7-47.9,68.9-47.9,105.3c0,36.4,17.2,76.6,47.9,105.3l45.9,47.9h825.1h825.1L5872.5-846.8z"/></g></g>
</svg>